<svg width="18" height="18" viewBox="0 0 18 18" fill="none" xmlns="http://www.w3.org/2000/svg">
<g id="pie chart">
<g id="Pie Chart">
<path id="Vector" d="M18 8.25H9.75V0C11.8809 0.171276 13.8813 1.09547 15.3929 2.60711C16.9045 4.11874 17.8287 6.1191 18 8.25Z" fill="#C6C6C6"/>
<path id="Vector_2" d="M18.0009 9.75C17.8516 11.4567 17.2183 13.0853 16.1754 14.4445C15.1325 15.8037 13.7233 16.837 12.1134 17.423C10.5035 18.0089 8.75984 18.1232 7.08724 17.7524C5.41464 17.3816 3.88262 16.5412 2.6712 15.3297C1.45977 14.1183 0.619283 12.5863 0.248485 10.9137C-0.122314 9.24108 -0.00801399 7.49739 0.577953 5.88751C1.16392 4.27762 2.19721 2.86843 3.55641 1.82551C4.9156 0.782593 6.54423 0.149284 8.25093 0V9C8.25093 9.19891 8.32994 9.38968 8.47059 9.53033C8.61125 9.67098 8.80201 9.75 9.00093 9.75H18.0009Z" fill="#C6C6C6"/>
</g>
</g>
</svg>
