<svg width="26" height="26" viewBox="0 0 26 26" fill="none" xmlns="http://www.w3.org/2000/svg">
<g id="cib:apple" clip-path="url(#clip0_1_345)">
<path id="Vector" d="M7.66853 25.5133C7.15592 25.1723 6.7016 24.7509 6.32303 24.2653C5.90661 23.7641 5.52079 23.2383 5.16766 22.6907C4.33897 21.4767 3.6891 20.1498 3.23797 18.7509C2.69603 17.1259 2.43359 15.5683 2.43359 14.0449C2.43359 12.3435 2.80166 10.8583 3.52153 9.61025C4.05516 8.6348 4.83974 7.81965 5.79409 7.24913C6.71897 6.67467 7.78166 6.36029 8.87022 6.33913C9.25128 6.33913 9.66159 6.39438 10.0971 6.5C10.4099 6.58857 10.791 6.72832 11.2565 6.90219C11.8488 7.1305 12.1747 7.27025 12.2852 7.30438C12.6321 7.43113 12.9238 7.48638 13.1529 7.48638C13.3268 7.48638 13.5722 7.43113 13.8508 7.34663C14.0077 7.29138 14.3034 7.19388 14.7267 7.01269C15.146 6.85994 15.4758 6.72913 15.7383 6.63163C16.1405 6.513 16.5297 6.40332 16.8766 6.34807C17.2879 6.28322 17.7053 6.26605 18.1205 6.29688C18.8401 6.34391 19.5488 6.49639 20.2241 6.74944C21.3283 7.19388 22.2212 7.88775 22.8858 8.87413C22.6049 9.04727 22.3413 9.24698 22.0985 9.4705C21.5701 9.93897 21.12 10.4889 20.7652 11.0996C20.3015 11.9341 20.0611 12.8741 20.0673 13.8288C20.0843 15.0012 20.385 16.0339 20.9773 16.9268C21.4127 17.5886 21.9787 18.1545 22.6405 18.59C22.9793 18.8183 23.271 18.9751 23.5505 19.0808C23.4197 19.487 23.2799 19.8803 23.115 20.2703C22.7409 21.1448 22.2875 21.9833 21.7605 22.7752C21.2909 23.4569 20.9228 23.9647 20.6433 24.3027C20.2078 24.8186 19.7886 25.2127 19.3653 25.4873C18.8997 25.7961 18.3497 25.961 17.7907 25.961C17.4121 25.9755 17.0336 25.9297 16.6694 25.8253C16.3566 25.7197 16.047 25.6051 15.7423 25.4743C15.4256 25.3288 15.099 25.2058 14.7649 25.1063C13.9392 24.8942 13.0734 24.8928 12.247 25.1022C11.9082 25.1997 11.5823 25.3134 11.2606 25.4532C10.808 25.6433 10.5074 25.7709 10.3335 25.8253C9.98659 25.9269 9.62666 25.9903 9.26266 26.0114C8.69959 26.0114 8.17472 25.8505 7.65472 25.5247L7.66853 25.5133ZM15.0948 5.51363C14.3587 5.88169 13.6558 6.0385 12.9579 5.98732C12.8482 5.2845 12.9579 4.56544 13.2496 3.77813C13.4979 3.11112 13.8648 2.49453 14.3327 1.95813C14.8267 1.39346 15.4261 0.930622 16.0974 0.595566C16.8124 0.227504 17.4941 0.0284413 18.1457 -0.000808716C18.2302 0.735316 18.1457 1.45925 17.8752 2.24169C17.6248 2.93336 17.2585 3.57738 16.7921 4.14619C16.316 4.71163 15.7318 5.17627 15.0737 5.51282L15.0948 5.51363Z" fill="black"/>
</g>
<defs>
<clipPath id="clip0_1_345">
<rect width="26" height="26" fill="white"/>
</clipPath>
</defs>
</svg>
