<svg width="18" height="18" viewBox="0 0 18 18" fill="none" xmlns="http://www.w3.org/2000/svg">
<g id="Magicons/Outline/User Interface/edit">
<g id="edit">
<path id="Vector" d="M14.1695 7.00859L7.41946 13.7586C7.26415 13.9106 7.06923 14.0158 6.85696 14.0623L4.86571 14.4617C4.68442 14.4976 4.4971 14.4882 4.32029 14.4345C4.14348 14.3807 3.98264 14.2843 3.85197 14.1536C3.7213 14.0229 3.62483 13.8621 3.57109 13.6853C3.51734 13.5084 3.50798 13.3211 3.54383 13.1398L3.93758 11.1655C3.98409 10.9532 4.08934 10.7583 4.24133 10.603L10.9013 3.93734C11.1188 3.71453 11.3786 3.53746 11.6655 3.41657C11.9524 3.29568 12.2606 3.2334 12.572 3.2334C12.8833 3.2334 13.1915 3.29568 13.4784 3.41657C13.7653 3.53746 14.0251 3.71453 14.2426 3.93734C14.6301 4.3648 14.8386 4.92481 14.825 5.50163C14.8114 6.07845 14.5767 6.628 14.1695 7.03671V7.00859Z" stroke="#212325" stroke-width="2" stroke-linecap="round" stroke-linejoin="round"/>
</g>
</g>
</svg>
