<svg width="26" height="26" viewBox="0 0 26 26" fill="none" xmlns="http://www.w3.org/2000/svg">
<g id="google_ic">
<g id="Group 123">
<path id="Vector" d="M6.41996 15.4656L5.59721 18.537L2.59008 18.6006C1.69139 16.9338 1.18164 15.0267 1.18164 13C1.18164 11.0403 1.65825 9.19223 2.50306 7.56496H2.50371L5.1809 8.05579L6.35366 10.7169C6.10821 11.4325 5.97442 12.2007 5.97442 13C5.97451 13.8676 6.13166 14.6988 6.41996 15.4656Z" fill="#FBBB00"/>
<path id="Vector_2" d="M24.6116 10.7922C24.7474 11.5071 24.8181 12.2454 24.8181 13C24.8181 13.8461 24.7292 14.6714 24.5597 15.4675C23.9844 18.1766 22.4811 20.5422 20.3987 22.2162L20.398 22.2155L17.026 22.0435L16.5487 19.0642C17.9305 18.2539 19.0104 16.9857 19.5793 15.4675H13.2598V10.7922H19.6715H24.6116Z" fill="#518EF8"/>
<path id="Vector_3" d="M20.3976 22.2156L20.3983 22.2163C18.373 23.8442 15.8002 24.8182 12.9996 24.8182C8.49893 24.8182 4.58596 22.3026 2.58984 18.6007L6.41972 15.4656C7.41775 18.1292 9.98724 20.0254 12.9996 20.0254C14.2944 20.0254 15.5074 19.6753 16.5483 19.0643L20.3976 22.2156Z" fill="#28B446"/>
<path id="Vector_4" d="M20.5432 3.90258L16.7146 7.03699C15.6374 6.36363 14.364 5.97464 12.9997 5.97464C9.91916 5.97464 7.30162 7.95774 6.35358 10.7169L2.50358 7.56493H2.50293C4.46983 3.77272 8.43215 1.18182 12.9997 1.18182C15.8672 1.18182 18.4964 2.20326 20.5432 3.90258Z" fill="#F14336"/>
</g>
</g>
</svg>
