<svg width="38" height="38" viewBox="0 0 38 38" fill="none" xmlns="http://www.w3.org/2000/svg">
<g id="Group">
<path id="Vector" d="M18.6659 0C8.35793 0 0 8.35793 0 18.6659C0 28.9738 8.35793 37.3333 18.6659 37.3333C28.9738 37.3333 37.3333 28.9738 37.3333 18.6659C37.3333 8.35793 28.9738 0 18.6659 0ZM22.5517 28.9296C21.5909 29.3088 20.8261 29.5964 20.2524 29.7956C19.6804 29.9947 19.0151 30.0942 18.2582 30.0942C17.0951 30.0942 16.1896 29.8098 15.5449 29.2425C14.9001 28.6752 14.5794 27.9561 14.5794 27.0823C14.5794 26.7425 14.6031 26.3949 14.6505 26.0409C14.6995 25.6869 14.7769 25.2887 14.8828 24.8415L16.0853 20.5938C16.1912 20.1861 16.2829 19.7989 16.3556 19.4386C16.4282 19.0752 16.463 18.7417 16.463 18.4383C16.463 17.8979 16.3508 17.5186 16.128 17.3053C15.902 17.0919 15.4769 16.9877 14.8433 16.9877C14.5335 16.9877 14.2143 17.0335 13.8872 17.1299C13.5633 17.2294 13.282 17.3195 13.0513 17.408L13.3689 16.0996C14.1559 15.7788 14.9096 15.5038 15.6286 15.2762C16.3477 15.0455 17.0272 14.9318 17.6672 14.9318C18.8223 14.9318 19.7136 15.213 20.3409 15.7693C20.9651 16.3271 21.2796 17.0524 21.2796 17.9437C21.2796 18.1286 21.2575 18.4541 21.2148 18.9187C21.1721 19.3849 21.0916 19.81 20.9746 20.2003L19.7784 24.4354C19.6804 24.7751 19.5935 25.1638 19.5145 25.5984C19.437 26.033 19.3991 26.3648 19.3991 26.5877C19.3991 27.1502 19.524 27.5342 19.7768 27.7381C20.0265 27.9419 20.4642 28.0446 21.0837 28.0446C21.376 28.0446 21.7031 27.9925 22.0729 27.8914C22.4395 27.7902 22.705 27.7001 22.8725 27.6227L22.5517 28.9296ZM22.3399 11.7397C21.7821 12.258 21.1105 12.5171 20.3251 12.5171C19.5413 12.5171 18.865 12.258 18.3024 11.7397C17.743 11.2213 17.4601 10.5908 17.4601 9.85442C17.4601 9.1196 17.7446 8.48751 18.3024 7.96444C18.865 7.4398 19.5413 7.17906 20.3251 7.17906C21.1105 7.17906 21.7837 7.4398 22.3399 7.96444C22.8978 8.48751 23.1775 9.1196 23.1775 9.85442C23.1775 10.5924 22.8978 11.2213 22.3399 11.7397Z" fill="#246BFD"/>
</g>
</svg>
