<svg width="64" height="24" viewBox="0 0 64 24" fill="none" xmlns="http://www.w3.org/2000/svg">
<g id="Transaction">
<g id="Transaction_2">
<path id="Vector" d="M36.0734 13.7946V14.7946C36.0734 15.4512 35.9615 16.1014 35.7441 16.708C35.5267 17.3146 35.2081 17.8658 34.8064 18.3301C34.4047 18.7944 33.9278 19.1627 33.403 19.414C32.8782 19.6653 32.3157 19.7946 31.7476 19.7946H28.9272C28.9139 20.3415 28.7714 20.8737 28.5152 21.3338C28.259 21.7938 27.8989 22.1641 27.4737 22.4046C27.1192 22.6094 26.7281 22.7155 26.3317 22.7146C25.7454 22.7186 25.1751 22.493 24.7139 22.0746L21.5042 19.1646C21.1916 18.8842 20.9386 18.5248 20.7645 18.1141C20.5905 17.7033 20.5 17.252 20.5 16.7946C20.5 16.3372 20.5905 15.8859 20.7645 15.4751C20.9386 15.0644 21.1916 14.705 21.5042 14.4246L24.7139 11.5146C25.1006 11.1578 25.5675 10.9363 26.0595 10.8761C26.5516 10.8158 27.0482 10.9194 27.491 11.1746C28.0807 11.5006 28.5348 12.083 28.7542 12.7946H35.1823C35.2981 12.7906 35.4134 12.8135 35.5213 12.8619C35.6293 12.9104 35.7278 12.9834 35.8109 13.0767C35.894 13.1699 35.96 13.2815 36.0051 13.4049C36.0502 13.5282 36.0734 13.6607 36.0734 13.7946Z" fill="#246BFD"/>
<path id="Vector_2" d="M44.4996 6.9347C44.4997 7.39203 44.4093 7.84332 44.2354 8.25408C44.0614 8.66484 43.8085 9.02421 43.496 9.3047L40.2863 12.2147C39.8186 12.6348 39.2435 12.8634 38.6512 12.8647C38.2548 12.8656 37.8637 12.7595 37.5092 12.5547C36.9195 12.2287 36.4654 11.6463 36.246 10.9347H29.792C29.5625 10.9347 29.3425 10.8293 29.1802 10.6418C29.018 10.4543 28.9268 10.1999 28.9268 9.9347V8.9347C28.9268 7.60862 29.3826 6.33685 30.1938 5.39917C31.0051 4.46148 32.1053 3.9347 33.2526 3.9347H36.073C36.0835 3.37565 36.229 2.83113 36.4931 2.36258C36.7571 1.89404 37.1292 1.52012 37.5674 1.28302C38.0055 1.04593 38.4923 0.95509 38.9727 1.02076C39.4531 1.08644 39.9081 1.30601 40.2863 1.6547L43.496 4.5647C43.8085 4.84519 44.0614 5.20456 44.2354 5.61532C44.4093 6.02608 44.4997 6.47737 44.4996 6.9347Z" fill="#246BFD"/>
</g>
</g>
</svg>
